<?xml version="1.0" encoding="utf-8"?>
<!-- Generator: Adobe Illustrator 23.0.3, SVG Export Plug-In . SVG Version: 6.00 Build 0)  -->
<svg version="1.1" id="Capa_1" xmlns="http://www.w3.org/2000/svg" xmlns:xlink="http://www.w3.org/1999/xlink" x="0px" y="0px"
	 viewBox="0 0 512 512" style="enable-background:new 0 0 512 512;" xml:space="preserve">
<style type="text/css">
	.st0{fill:#FFFFFF;}
</style>
<g>
	<path class="st0" d="M0.5,416.7c0,32.1,26.1,58.2,58.2,58.2h12.9h354.8h25.8h26.9V449h-26.9v-64.6h26.9v-11.3H492h19.4v-25.8H492
		v-64.6h19.4v-25.8H492h-1.6v-8.6v-12.9v-0.6L458.6,175h33.5v-34.8L407.8,37.1H110.2L33.5,158c-13.1,10.7-21.7,26.8-21.7,44.9
		c0,31.9,25.8,57.8,57.6,58.1c-21.4,8.7-36.6,29.5-36.6,54c0,17.7,8.2,33.5,20.7,44.1C23.9,361.7,0.5,386.4,0.5,416.7z M37.7,203
		c0-12.1,6.7-22.5,16.5-28h385.2v60.3H70C52.2,235.3,37.7,220.8,37.7,203z M91,282.7h12.9h362.4v64.6H103.9H91
		c-17.8,0-32.3-14.5-32.3-32.3C58.7,297.1,73.2,282.7,91,282.7z M58.7,384.4h12.9h354.8V449H71.6H58.7c-17.8,0-32.3-14.5-32.3-32.3
		C26.3,398.9,40.8,384.4,58.7,384.4z"/>
</g>
</svg>
