<?xml version="1.0" encoding="utf-8"?>
<!-- Generator: Adobe Illustrator 23.0.3, SVG Export Plug-In . SVG Version: 6.00 Build 0)  -->
<svg version="1.1" id="Capa_1" xmlns="http://www.w3.org/2000/svg" xmlns:xlink="http://www.w3.org/1999/xlink" x="0px" y="0px"
	 viewBox="0 0 512 512" style="enable-background:new 0 0 512 512;" xml:space="preserve">
<style type="text/css">
	.st0{fill:#666666;}
</style>
<path class="st0" d="M407.3,338.1c-23.1,0-44.8,9-61.1,25.3c-4.5,4.5-8.4,9.5-11.8,14.8L185,287.5c4-9.9,6.2-20.6,6.2-31.9
	s-2.2-22-6.2-31.9l149.4-90c15.4,24.1,42.2,40.2,72.9,40.2c47.7,0,86.4-38.8,86.4-86.4S454.9,1,407.3,1s-86.4,38.8-86.4,86.4
	c0,10.9,2.1,21.2,5.8,30.8L177,208.3c-15.5-23.5-42.1-39.1-72.3-39.1c-47.7,0-86.4,38.8-86.4,86.4S57.1,342,104.7,342
	c30.2,0,56.8-15.6,72.3-39.1l149.6,90.8c-3.7,9.7-5.7,20.1-5.7,30.9c0,23.1,9,44.8,25.3,61.1c16.3,16.3,38,25.3,61.1,25.3
	s44.8-9,61.1-25.3c16.3-16.3,25.3-38,25.3-61.1s-9-44.8-25.3-61.1C452.1,347.1,430.4,338.1,407.3,338.1z"/>
</svg>
