<?xml version="1.0" encoding="utf-8"?>
<!-- Generator: Adobe Illustrator 23.0.3, SVG Export Plug-In . SVG Version: 6.00 Build 0)  -->
<svg version="1.1" id="Capa_1" xmlns="http://www.w3.org/2000/svg" xmlns:xlink="http://www.w3.org/1999/xlink" x="0px" y="0px"
	 viewBox="0 0 512 512" style="enable-background:new 0 0 512 512;" xml:space="preserve">
<style type="text/css">
	.st0{fill:#666666;}
</style>
<path class="st0" d="M500.6,233.1c10.1-9.8,13.6-24.2,9.3-37.6c-4.4-13.4-15.7-22.9-29.6-25l-123.8-18c-5.3-0.8-9.8-4.1-12.2-8.9
	L288.9,31.5C282.7,18.9,270.1,11,256,11c-14,0-26.7,7.8-32.9,20.4l-55.4,112.2c-2.4,4.8-6.9,8.1-12.2,8.9l-123.8,18
	c-13.9,2-25.3,11.6-29.6,25s-0.8,27.8,9.3,37.6l89.6,87.3c3.8,3.7,5.6,9.1,4.7,14.3L84.5,458c-1.9,10.9,1,21.4,8,29.7
	c10.9,13,30,16.9,45.2,8.9l110.7-58.2c4.6-2.4,10.5-2.4,15.1,0l110.7,58.2c5.4,2.8,11.1,4.3,17.1,4.3c10.8,0,21.1-4.8,28.1-13.2
	c7-8.3,9.9-18.9,8-29.7l-21.1-123.3c-0.9-5.3,0.8-10.6,4.7-14.3L500.6,233.1z"/>
</svg>
